<svg xmlns="http://www.w3.org/2000/svg" fill="none" viewBox="0 0 283 64"><path fill="black" d="M141 16c-11 0-19 7-19 18s9 18 20 18c7 0 13-3 16-7l-7-5c-2 3-6 4-9 4-5 0-9-3-10-7h28v-3c0-11-8-18-19-18zm-9 15c1-4 4-7 9-7s8 3 9 7h-18zm117-15c-11 0-19 7-19 18s9 18 20 18c7 0 13-3 16-7l-7-5c-2 3-6 4-9 4-5 0-9-3-10-7h28v-3c0-11-8-18-19-18zm-9 15c1-4 4-7 9-7s8 3 9 7h-18zm-39-15c-5 0-8 2-10 5V16h-11v36h11V31c0-5 3-7 6-7 4 0 6 3 6 7v21h11V29c0-8-5-13-13-13zm-56 18c0 6-4 10-9 10s-9-4-9-10 4-10 9-10 9 4 9 10zm11 0c0-11-8-18-20-18s-20 7-20 18 8 18 20 18 20-7 20-18zM34 16V5H23v11H13v11h10v15c0 9 5 14 14 14h7V45h-5c-4 0-5-2-5-5V27h10V16H34z"/></svg>
